<?xml version="1.0" encoding="utf-8"?>
<!-- Generator: Adobe Illustrator 24.2.0, SVG Export Plug-In . SVG Version: 6.00 Build 0)  -->
<svg version="1.1" id="Слой_1" xmlns="http://www.w3.org/2000/svg" xmlns:xlink="http://www.w3.org/1999/xlink" x="0px" y="0px"
	 viewBox="0 0 20 20" style="enable-background:new 0 0 20 20;" xml:space="preserve">
<style type="text/css">
	.st0{fill:#FFFFFF;}
</style>
<g id="f9vd0i_2_">
	<g>
		<g>
			<path d="M10.05,0.01c1.92,0,3.84-0.01,5.77,0c2.36,0.01,4.14,1.74,4.16,4.11c0.03,3.92,0.03,7.84,0,11.76
				c-0.02,2.39-1.77,4.1-4.15,4.11C11.96,20,8.09,20,4.22,19.99c-2.47-0.01-4.2-1.76-4.21-4.22C0,11.92,0,8.08,0.01,4.24
				c0.01-2.5,1.77-4.22,4.28-4.23C6.21,0,8.13,0.01,10.05,0.01z M4.54,9.95c0,1.11-0.01,2.22,0,3.34c0.01,1.31,0.88,2.19,2.18,2.2
				c2.17,0.01,4.35,0.01,6.52,0c1.32-0.01,2.21-0.86,2.22-2.17c0.02-2.22,0.02-4.45,0-6.67c-0.01-1.2-0.85-2.07-2.04-2.09
				c-2.27-0.03-4.55-0.03-6.82,0C5.36,4.56,4.55,5.44,4.54,6.69C4.53,7.78,4.54,8.86,4.54,9.95z"/>
			<path class="st0" d="M4.54,9.95c0-1.09-0.01-2.17,0-3.26C4.55,5.44,5.36,4.56,6.6,4.55c2.27-0.03,4.55-0.03,6.82,0
				c1.19,0.02,2.03,0.89,2.04,2.09c0.02,2.22,0.02,4.45,0,6.67c-0.01,1.31-0.9,2.16-2.22,2.17c-2.17,0.01-4.35,0.01-6.52,0
				c-1.3-0.01-2.17-0.89-2.18-2.2C4.53,12.17,4.54,11.06,4.54,9.95z M12.92,8.87c0.08,2.71-0.98,4.16-2.94,4.14
				c-1.99-0.02-3.06-1.51-2.9-4.1c-0.47,0-0.93,0-1.46,0c0,1.56-0.03,3.07,0.02,4.58c0.02,0.62,0.51,0.92,1.11,0.92
				c2.17,0.01,4.35,0.01,6.52,0c0.61,0,1.08-0.33,1.11-0.93c0.06-1.5,0.02-3.01,0.02-4.55c-0.25-0.03-0.42-0.06-0.6-0.06
				C13.52,8.86,13.25,8.87,12.92,8.87z M11.91,9.97c-0.02-1.06-0.93-1.94-1.96-1.9C8.94,8.11,8.07,9,8.07,9.99
				c0,1.07,0.93,1.96,2.01,1.92C11.12,11.86,11.93,11,11.91,9.97z M12.41,5.82c0,0.6,0,1.16,0,1.76c0.59,0,1.16,0,1.74,0
				c0-0.6,0-1.17,0-1.76C13.55,5.82,13.01,5.82,12.41,5.82z"/>
			<path d="M12.92,8.87c0.33,0,0.6-0.01,0.88,0c0.17,0.01,0.34,0.03,0.6,0.06c0,1.54,0.04,3.04-0.02,4.55
				c-0.02,0.6-0.49,0.93-1.11,0.93c-2.17,0.01-4.35,0.01-6.52,0c-0.59,0-1.09-0.3-1.11-0.92c-0.05-1.51-0.02-3.02-0.02-4.58
				c0.53,0,1,0,1.46,0c-0.16,2.59,0.91,4.08,2.9,4.1C11.94,13.03,13,11.58,12.92,8.87z"/>
			<path d="M11.91,9.97c0.02,1.03-0.79,1.9-1.82,1.94C9,11.95,8.07,11.06,8.07,9.99c0-0.99,0.87-1.88,1.88-1.92
				C10.97,8.03,11.89,8.91,11.91,9.97z"/>
			<path d="M12.41,5.82c0.6,0,1.14,0,1.74,0c0,0.6,0,1.16,0,1.76c-0.58,0-1.15,0-1.74,0C12.41,6.98,12.41,6.41,12.41,5.82z"/>
		</g>
	</g>
</g>
</svg>
